<svg version="1.1" id="Pokéball" xmlns="http://www.w3.org/2000/svg" xmlns:xlink="http://www.w3.org/1999/xlink" x="0px" y="0px" viewBox="0 0 24 23.952" style="enable-background:new 0 0 595.3 594.1;" xml:space="preserve" width="24" height="23.952"><style type="text/css">
	.st0{fill:#FFFFFF;}
	.st1{fill:#DFDFDF;}
	.st2{fill:#FF1C1C;}
	.st3{fill:#DF1818;}
</style><g id="Pokéball_1_"><g id="Colours"><path id="Down" class="st0" d="M11.998 15.356c-1.629 0 -2.987 -1.153 -3.31 -2.685H3.27c0.383 4.455 4.12 7.95 8.672 7.95s8.293 -3.495 8.672 -7.95H15.308C14.985 14.207 13.627 15.356 11.998 15.356z"/><path id="Shadow_Down" class="st1" d="M13.933 20.396c3.612 -0.847 6.358 -3.939 6.68 -7.725h-2.137C18.263 16.106 16.461 19.017 13.933 20.396z"/><path id="Center" class="st0" d="M13.994 11.974L13.994 11.974C13.99 11.974 13.99 11.974 13.994 11.974c-0.004 -0.246 -0.048 -0.48 -0.129 -0.697c-0.282 -0.758 -1.012 -1.294 -1.867 -1.294s-1.584 0.54 -1.867 1.294c-0.081 0.218 -0.125 0.452 -0.125 0.697c0 0 0 0 0 0h0.004c0 0 0 0 0 0c0 0.246 0.044 0.48 0.125 0.697c0.282 0.758 1.012 1.294 1.867 1.294c0.855 0 1.584 -0.54 1.867 -1.294C13.949 12.458 13.994 12.22 13.994 11.974C13.994 11.974 13.994 11.974 13.994 11.974z"/><path id="Up" class="st2" d="M12.002 8.595c1.629 0 2.987 1.153 3.31 2.685h5.418C20.347 6.821 16.61 3.326 12.054 3.326S3.765 6.821 3.382 11.276h5.31C9.015 9.744 10.373 8.595 12.002 8.595z"/><path id="Shadow_Up" class="st3" d="M18.477 11.276h2.25c-0.331 -3.85 -3.169 -6.987 -6.874 -7.765C16.425 4.87 18.259 7.809 18.477 11.276z"/></g><path id="Line" d="M12.054 3.326c4.556 0 8.293 3.495 8.672 7.95H15.308c-0.323 -1.532 -1.681 -2.685 -3.31 -2.685c-1.629 0 -2.987 1.153 -3.31 2.685H3.382C3.765 6.821 7.503 3.326 12.054 3.326zM13.865 11.276c0.081 0.218 0.125 0.452 0.125 0.697c0 0 0 0 0 0h0.004c0 0 0 0 0 0c0 0.246 -0.044 0.48 -0.125 0.697c-0.282 0.758 -1.012 1.294 -1.867 1.294c-0.855 0 -1.584 -0.54 -1.867 -1.294c-0.081 -0.218 -0.125 -0.452 -0.125 -0.697c0 0 0 0 0 0h-0.004c0 0 0 0 0 0c0 -0.246 0.044 -0.48 0.125 -0.697c0.282 -0.758 1.012 -1.294 1.867 -1.294S13.582 10.522 13.865 11.276zM11.942 20.626c-4.556 0 -8.293 -3.495 -8.672 -7.95h5.418c0.323 1.532 1.681 2.685 3.31 2.685s2.987 -1.153 3.31 -2.685h5.31C20.235 17.126 16.497 20.626 11.942 20.626zM11.998 1.665C6.305 1.665 1.689 6.281 1.689 11.974s4.616 10.309 10.309 10.309S22.311 17.67 22.311 11.974S17.695 1.665 11.998 1.665z"/></g></svg>